<?xml version="1.0" standalone="no"?>
<!DOCTYPE svg PUBLIC "-//W3C//DTD SVG 20010904//EN"
 "http://www.w3.org/TR/2001/REC-SVG-20010904/DTD/svg10.dtd">
<svg version="1.0" xmlns="http://www.w3.org/2000/svg"
 width="156.000000pt" height="156.000000pt" viewBox="0 0 156.000000 156.000000"
 preserveAspectRatio="xMidYMid meet">
<metadata>
Created by potrace 1.14, written by Peter Selinger 2001-2017
</metadata>
<g transform="translate(0.000000,156.000000) scale(0.100000,-0.100000)"
fill="#000000" stroke="none">
<path d="M710 1448 c-36 -62 -79 -137 -96 -168 -17 -30 -95 -165 -174 -300
-78 -135 -154 -265 -168 -290 -14 -25 -74 -130 -135 -234 l-109 -189 23 -41
c13 -23 46 -81 75 -130 l52 -89 16 27 c38 62 47 77 67 113 93 166 195 341 207
355 13 16 26 -2 131 -185 65 -111 131 -226 147 -254 16 -29 31 -53 34 -53 3 1
70 115 150 255 80 140 147 254 150 255 3 0 25 -35 49 -78 109 -189 224 -389
238 -411 15 -23 16 -23 69 70 30 52 59 101 64 109 34 51 34 55 -8 126 -22 38
-50 88 -63 110 -236 412 -645 1114 -649 1114 -3 0 -35 -50 -70 -112z m145
-531 c39 -67 69 -127 69 -134 -1 -6 -34 -66 -73 -133 l-72 -122 -75 130 -74
129 73 126 c39 70 74 126 77 127 3 0 37 -55 75 -123z"/>
</g>
</svg>
